<?xml version="1.0" encoding="UTF-8" standalone="no"?>
<!-- Created with Inkscape (http://www.inkscape.org/) -->

<svg
   xmlns:dc="http://purl.org/dc/elements/1.1/"
   xmlns:cc="http://creativecommons.org/ns#"
   xmlns:rdf="http://www.w3.org/1999/02/22-rdf-syntax-ns#"
   xmlns:svg="http://www.w3.org/2000/svg"
   xmlns="http://www.w3.org/2000/svg"
   xmlns:sodipodi="http://sodipodi.sourceforge.net/DTD/sodipodi-0.dtd"
   xmlns:inkscape="http://www.inkscape.org/namespaces/inkscape"
   width="29.030069mm"
   height="49.861439mm"
   viewBox="0 0 102.86245 176.67439"
   id="svg5962"
   version="1.1"
   inkscape:version="0.91 r13725"
   sodipodi:docname="flask-icon.svg">
  <defs
     id="defs5964" />
  <sodipodi:namedview
     id="base"
     pagecolor="#ffffff"
     bordercolor="#666666"
     borderopacity="1.0"
     inkscape:pageopacity="0.0"
     inkscape:pageshadow="2"
     inkscape:zoom="1.979899"
     inkscape:cx="88.972171"
     inkscape:cy="96.336839"
     inkscape:document-units="px"
     inkscape:current-layer="layer1"
     showgrid="false"
     fit-margin-top="0"
     fit-margin-left="0"
     fit-margin-right="0"
     fit-margin-bottom="0"
     inkscape:window-width="1548"
     inkscape:window-height="884"
     inkscape:window-x="51"
     inkscape:window-y="140"
     inkscape:window-maximized="1" />
  <metadata
     id="metadata5967">
    <rdf:RDF>
      <cc:Work
         rdf:about="">
        <dc:format>image/svg+xml</dc:format>
        <dc:type
           rdf:resource="http://purl.org/dc/dcmitype/StillImage" />
        <dc:title />
      </cc:Work>
    </rdf:RDF>
  </metadata>
  <g
     inkscape:label="Layer 1"
     inkscape:groupmode="layer"
     id="layer1"
     transform="translate(1002.8598,155.97499)">
    <g
       id="g4139">
      <path
         inkscape:export-ydpi="43.299461"
         inkscape:export-xdpi="43.299461"
         inkscape:export-filename="/home/outskirts/clients/outskirtslabs/branding/raster/title-85.png"
         sodipodi:nodetypes="cssscsccssssscccsssscccscsssscccsscsssssscssssscsssssccscsssssscscsscsssscsscccssssscssscccssccsssssssscc"
         id="path3109-6-7"
         d="m -957.93097,20.563713 c -7.58455,-1.39 -10.89037,-2.3828 -15.81865,-4.751 -5.40472,-2.5971 -9.53851,-5.5689 -14.15615,-10.1766996 -5.82203,-5.8096 -9.22058,-11.0468 -12.15013,-18.7236004 -2.2478,-5.8902 -2.8064,-9.4287 -2.8039,-17.7619 0,-5.9602 0.1297,-7.949 0.6572,-10.2196 0.3602,-1.5505 0.6763,-3.1364 0.7025,-3.524 0.026,-0.3876 0.1432,-0.7841 0.26,-0.881 0.1168,-0.097 0.4945,-1.0484 0.8393,-2.1144 0.60915,-1.883 4.30166,-9.8656 4.72732,-10.2196 0.11652,-0.097 0.80246,-1.0484 1.52429,-2.1144 1.34417,-1.9851 1.75732,-2.5014 4.93951,-6.1731 3.05045,-3.5196 8.93482,-7.955 14.09919,-10.6275 l 3.0835,-1.5956 0,-17.1459 0,-17.145903 -1.71719,-0.7878 c -2.11206,-0.9689 -3.69592,-2.5332 -4.90712,-4.8465 -0.79125,-1.5112 -0.92467,-2.2134 -0.93743,-4.9336 -0.0181,-3.8632 0.78079,-5.7282 3.52691,-8.2333 2.95627,-2.6968 3.83384,-2.8711 14.44929,-2.8691 l 9.18105,0 -0.0137,1.8502 c -0.008,1.0175 0.10419,2.2787 0.24824,2.8027 l 0.26191,0.9527 -9.31618,0.1045 c -8.77128,0.098 -9.37305,0.1471 -10.28852,0.8311 -2.51166,1.8768 -3.15309,4.2768 -1.83079,6.8501 0.97117,1.8899 2.70802,2.8752 5.47229,3.1044 l 1.86201,0.1544 0,21.578903 0,21.5787 -3.15875,1.3093 c -5.82403,2.4141 -11.4936,6.3562 -15.87235,11.0363 -8.00564,8.5566 -12.32686,19.5323 -12.33112,31.3203 -6.5e-4,2.1563 0.0932,4.3936 0.20885,4.9718 0.2083,1.0415 0.237,1.0532 3.0835,1.2585 2.82755,0.2039 6.82129,1.3034 10.05004,2.7668 1.71948,0.7793 3.46459,1.5863 11.50871,5.3219 5.08162,2.3598 7.54706,3.1631 8.1202,2.8089 0.18745,-0.1158 0.32398,1.0776 0.32398,2.8319 l 0,3.0322004 -1.3215,-0.2401 c -3.0462,-0.5534 -5.25927,-1.6526 -11.71217,-5.1706004 -1.16292,-0.634 -3.06588,-1.6664 -4.2288,-2.2941 -1.16293,-0.6277 -3.38305,-1.826 -4.93362,-2.6629 -3.50553,-1.8921 -5.87982,-2.8291 -8.26893,-3.2634 l -1.8514,-0.3365 0.23054,1.4418 c 0.31872,1.9932 1.7973,6.306 3.10193,9.048 3.88421,8.1636004 10.843,15.7513004 18.54284,20.2187004 4.00876,2.3258996 4.39692,2.4214996 6.692,1.6482996 1.10153,-0.371 3.57227,-0.9952996 5.49055,-1.3870996 1.91827,-0.3919 2.64338,-1.0902 3.77765,-1.1695 l 18.18899,0.9613 c 0.91833,0.1248 3.159,0.6122 4.97927,1.0830996 l 3.3096,0.8562 2.32882,-1.2754996 c 3.65822,-2.0037 6.65372,-4.2515 10.02136,-7.52 2.99261,-2.9045 6.93207,-7.6419 6.93207,-8.3362 0,-0.1839 -1.86331,-0.6951 -4.14071,-1.1362 -2.27738,-0.441 -5.96437,-1.1899 -8.1933,-1.6643 -5.00343,-1.0648004 -8.80362,-1.1179004 -12.35785,-0.1727 -1.44054,0.3831 -2.73811,0.7002 -2.88347,0.7048 -0.14537,0 -0.2643,-0.9902 -0.2643,-2.2106004 l 0,-2.2189 2.47334,-0.4241 c 5.93794,-1.0182 9.394,-0.4289 20.88701,3.5621004 l 5.56412,1.9321 1.22728,-2.4371004 c 3.82616,-7.5978 5.54234,-16.4588 4.73955,-24.4713 -0.81575,-8.1418 -3.19479,-14.8689 -7.71907,-21.8267 -2.05206,-3.1559 -8.99769,-10.1201 -12.19521,-12.2279 -3.07205,-2.0251 -7.25166,-4.1834 -7.63838,-3.9444 -0.15985,0.099 -0.29062,0.029 -0.29062,-0.1554 0,-0.1842 -0.39646,-0.4345 -0.88101,-0.5561 l -0.881,-0.2211 0,-21.9517 0,-21.951703 1.76254,-0.4517 c 2.57552,-0.6601 4.22876,-2.6623 4.22695,-5.1191 -0.002,-2.3719 -0.96276,-3.9198 -2.99065,-4.8168 -1.4523,-0.6424 -1.53941,-0.7552 -1.224,-1.5848 0.18676,-0.4912 0.33956,-1.7676 0.33956,-2.8364 l 0,-1.9433 1.1453,0.2477 c 5.69057,1.2303 9.51741,7.1554 8.37426,12.966 -0.53276,2.7079 -2.35437,5.5204 -4.42497,6.8318 l -1.54485,0.9784 -0.006,17.796203 -0.006,17.7962 2.77638,1.478 c 4.11803,2.1922 8.53975,5.4901 12.15068,9.0624 1.76437,1.7455 3.30045,3.1494 3.41351,3.1199 0.11306,-0.029 0.20719,0.1357 0.20916,0.3672 0.003,0.3676 3.08714,5.0589 3.63587,5.5307 0.69141,0.5946 4.29589,8.502 5.22069,11.4531 1.86003,5.9353 2.32804,9.1675 2.32173,16.0342 -0.006,6.5466 -0.38086,9.2012 -2.13969,15.1532 -0.77454,2.6211 -4.81348,11.4210004 -5.353,11.9816004 -0.0273,0.028 -2.51452,3.4953 -2.51452,3.6879 0,0.3068 -3.1038,3.6701 -5.86509,6.3555 -6.68166,6.4980996 -15.65987,11.2774996 -25.14616,13.3859996 -2.56863,0.5709 -14.81338,1.0579 -16.91521,0.6727 z"
         style="fill:#000000;fill-opacity:1"
         inkscape:connector-curvature="0" />
      <path
         inkscape:export-ydpi="43.299461"
         inkscape:export-xdpi="43.299461"
         inkscape:export-filename="/home/outskirts/clients/outskirtslabs/branding/raster/title-85.png"
         id="path3107-4-7"
         d="m -916.60742,-19.040187 c -2.78413,-0.9185 -4.27988,-3.0123 -4.29061,-6.0063 -0.0131,-3.6511 2.51399,-6.1532 6.22067,-6.1591 1.83142,0 2.87582,0.3907 4.30943,1.6242 1.3937,1.1992 1.9617,2.8479 1.79307,5.2047 -0.14354,2.0061 -0.96407,3.4533 -2.6164,4.6146 -0.85078,0.5979 -1.34713,0.7391 -2.90432,0.8261 -1.033,0.058 -2.16332,0.011 -2.51184,-0.1042 z"
         style="fill:#e76227;fill-opacity:1"
         inkscape:connector-curvature="0" />
      <path
         inkscape:export-ydpi="43.299461"
         inkscape:export-xdpi="43.299461"
         inkscape:export-filename="/home/outskirts/clients/outskirtslabs/branding/raster/title-85.png"
         sodipodi:nodetypes="ccsscsssccsccsccssscsscc"
         id="path5906-70"
         d="m -942.1575,9.2477134 0,-24.1523004 13.27178,0.328 c 3.35094,0.083 6.11208,-1.6107 6.11208,-3.6109 l 0,-0.3281 0,-27.0276 c 0,-2.0528 -2.72481,-3.7204 -6.01349,-3.7204 -3.29264,0 -5.91492,1.6676 -5.91492,3.7204 l 0,23.7449 -7.25844,0 0,-44.2373 c 0,-3.6679 -4.26662,-6.5654 -9.56244,-6.5654 l 1.7e-4,0 c -5.28794,0 -9.56243,2.8975 -9.56243,6.5654 l 0,26.2616 -6.10133,0 0,-10.1764 c 0,-1.3962 -1.80208,-2.5167 -4.04186,-2.5167 -2.2319,0 -4.04185,1.1205 -4.04185,2.5167 l 0,12.5837 0,0.2189 c 0,1.44 2.05839,2.6262 4.53476,2.6262 l 9.65028,0 0,43.7693004"
         style="fill:#000000;fill-opacity:1;fill-rule:nonzero;stroke:none"
         inkscape:connector-curvature="0" />
      <path
         inkscape:export-ydpi="43.299461"
         inkscape:export-xdpi="43.299461"
         inkscape:export-filename="/home/outskirts/clients/outskirtslabs/branding/raster/title-85.png"
         id="path3105-8-0"
         d="m -952.83766,-102.12789 c -3.29232,-1.2497 -5.03031,-3.9504 -5.03031,-7.8166 0,-4.9007 3.21807,-8.1016 8.10507,-8.0619 3.76104,0.031 5.86662,1.2346 7.54212,4.3131 0.90846,1.6691 0.98273,2.0582 0.77672,4.0691 -0.38014,3.7103 -1.566,5.6953 -4.26609,7.141 -1.68842,0.9041 -5.21836,1.08 -7.12751,0.3553 z"
         style="fill:#e76227;fill-opacity:1"
         inkscape:connector-curvature="0" />
      <path
         inkscape:export-ydpi="43.299461"
         inkscape:export-xdpi="43.299461"
         inkscape:export-filename="/home/outskirts/clients/outskirtslabs/branding/raster/title-85.png"
         id="path3103-0-3"
         d="m -945.90549,-127.36039 c -2.70587,-1.4291 -3.65251,-3.8694 -2.96348,-7.6395 0.28621,-1.5661 1.89531,-3.342 3.62335,-3.9991 1.15765,-0.4401 3.71135,-0.4167 4.93668,0.045 4.72756,1.7824 5.35868,8.8911 1.01533,11.4364 -1.88445,1.1044 -4.69181,1.171 -6.61188,0.157 z"
         style="fill:#e76227;fill-opacity:1"
         inkscape:connector-curvature="0" />
      <path
         inkscape:export-ydpi="43.299461"
         inkscape:export-xdpi="43.299461"
         inkscape:export-filename="/home/outskirts/clients/outskirtslabs/branding/raster/title-85.png"
         id="path3099-6-7"
         d="m -956.72047,-146.34019 c -3.36905,-1.6609 -3.4197,-7.4992 -0.0797,-9.1892 0.47874,-0.2422 1.75585,-0.4428 2.83802,-0.4456 1.72307,0 2.13478,0.1393 3.31297,1.1578 1.1959,1.0337 1.36344,1.3807 1.50792,3.1229 0.11685,1.4091 -0.0108,2.3254 -0.45416,3.2596 -1.11573,2.3512 -4.55402,3.362 -7.12503,2.0945 z"
         style="fill:#e76227;fill-opacity:1"
         inkscape:connector-curvature="0" />
    </g>
  </g>
</svg>
