<?xml version="1.0" encoding="UTF-8" standalone="no"?>
<!-- Created with Inkscape (http://www.inkscape.org/) -->

<svg
   xmlns:dc="http://purl.org/dc/elements/1.1/"
   xmlns:cc="http://creativecommons.org/ns#"
   xmlns:rdf="http://www.w3.org/1999/02/22-rdf-syntax-ns#"
   xmlns:svg="http://www.w3.org/2000/svg"
   xmlns="http://www.w3.org/2000/svg"
   xmlns:sodipodi="http://sodipodi.sourceforge.net/DTD/sodipodi-0.dtd"
   xmlns:inkscape="http://www.inkscape.org/namespaces/inkscape"
   width="49.123089mm"
   height="65.85685mm"
   viewBox="0 0 174.05819 233.35104"
   id="svg4298"
   version="1.1"
   inkscape:version="0.91 r13725"
   sodipodi:docname="tramp-icon.svg">
  <defs
     id="defs4300">
    <clipPath
       clipPathUnits="userSpaceOnUse"
       id="clipPath3840">
      <rect
         style="display:inline;fill:#4d4d4d;fill-opacity:1;stroke:none"
         id="rect3842"
         width="256"
         height="256"
         x="67.196648"
         y="-187.19006"
         ry="14.849242" />
    </clipPath>
  </defs>
  <sodipodi:namedview
     id="base"
     pagecolor="#ffffff"
     bordercolor="#666666"
     borderopacity="1.0"
     inkscape:pageopacity="0.0"
     inkscape:pageshadow="2"
     inkscape:zoom="0.98994949"
     inkscape:cx="196.10747"
     inkscape:cy="118.65479"
     inkscape:document-units="px"
     inkscape:current-layer="layer1"
     showgrid="false"
     fit-margin-top="0"
     fit-margin-left="0"
     fit-margin-right="0"
     fit-margin-bottom="0"
     inkscape:window-width="1548"
     inkscape:window-height="884"
     inkscape:window-x="51"
     inkscape:window-y="140"
     inkscape:window-maximized="1" />
  <metadata
     id="metadata4303">
    <rdf:RDF>
      <cc:Work
         rdf:about="">
        <dc:format>image/svg+xml</dc:format>
        <dc:type
           rdf:resource="http://purl.org/dc/dcmitype/StillImage" />
        <dc:title></dc:title>
      </cc:Work>
    </rdf:RDF>
  </metadata>
  <g
     inkscape:label="Layer 1"
     inkscape:groupmode="layer"
     id="layer1"
     transform="translate(6.1836605,-307.20226)">
    <g
       style="display:inline;fill:#000000;fill-opacity:1"
       transform="matrix(2.3382156,0,0,2.3382156,-1372.4339,-1597.2701)"
       id="g5089">
      <path
         inkscape:connector-curvature="0"
         d="m 633.5362,834.77255 c -2.31,-0.184 -4.2,-1.164 -5.672,-2.932 -1.479,-1.764 -2.128,-3.813 -1.942,-6.137 0.188,-2.326 1.156,-4.235 2.911,-5.72 1.752,-1.488 3.735,-2.142 5.946,-1.955 2.311,0.184 4.202,1.16 5.677,2.928 1.477,1.768 2.124,3.817 1.937,6.142 -0.187,2.232 -1.129,4.096 -2.836,5.581 -1.707,1.485 -3.714,2.184 -6.021,2.093 z"
         id="path8"
         style="fill:#000000;fill-opacity:1" />
      <path
         inkscape:connector-curvature="0"
         d="m 592.0222,825.58855 -5.226,-2.06 c -0.857,-0.334 -1.278,-1.303 -0.942,-2.163 0.337,-0.855 1.312,-1.277 2.163,-0.938 l 2.968,1.166 -2.001,-3.526 c -0.454,-0.801 -0.175,-1.82 0.627,-2.274 0.807,-0.454 1.819,-0.169 2.273,0.628 l 2.427,4.276 2.597,-5.268 c 0.409,-0.826 1.401,-1.166 2.234,-0.76 0.826,0.408 1.164,1.407 0.759,2.232 l -3.386,6.871 50.977,20.067 0.381,-0.6 c 1.156,-1.815 3.564,-2.345 5.373,-1.194 1.586,1.01 2.193,2.978 1.549,4.669 l 2.902,1.142 c 0.856,0.334 1.278,1.304 0.94,2.163 -0.259,0.656 -0.887,1.056 -1.552,1.056 -0.204,0 -0.41,-0.037 -0.611,-0.118 l -3.428,-1.349 -8.986,14.119 c -0.72,1.128 -1.962,1.802 -3.283,1.802 -0.135,0 -0.271,-0.007 -0.409,-0.021 -1.468,-0.154 -2.723,-1.127 -3.238,-2.511 l -2.249,-6.037 -2.555,10.821 14.806,17.432 c 0.278,0.559 0.508,1.154 0.695,1.803 1.27985,7.36204 2.90498,14.79787 4.013,22.14 -0.187,1.476 -0.855,2.719 -2.011,3.74 -1.151,1.012 -2.51,1.468 -4.079,1.377 -2.862,-0.274 -4.569,-1.751 -5.121,-4.426 l -3.739,-19.649 -11.897,-13.147 -2.771,12.729 c -0.46,1.02 -0.827,1.803 -1.103,2.354 l -11.484,19.376 c -1.203,2.026 -2.958,2.949 -5.26,2.763 -1.572,-0.185 -2.863,-0.855 -3.874,-2.016 -1.017,-1.153 -1.434,-2.521 -1.247,-4.092 0,-0.833 0.23,-1.622 0.694,-2.366 l 10.716,-18.056 8.996,-39.36 -6.012,4.865 -3.049,13.974 c -0.46,2.221 -1.794,3.82 -4.014,3.634 -2.489,-0.18 -3.597,-2.103 -3.313,-4.584 0,-0.089 0,-0.233 0,-0.411 l 3.73,-16.274 c 0.092,-0.73 0.46,-1.329 1.107,-1.79 l 13.021,-10.25 c 0.165,-0.128 0.354,-0.208 0.546,-0.284 l -23.533,-9.265 c 2.87,4.185 6.257,10.079 6.257,14.637 0,7.936 -5.651,11.241 -10.207,11.241 l -0.026,0 c -4.557,0 -9.854,-3.305 -9.854,-11.241 0.002,-5.528 4.81,-13.027 7.709,-17.047 z m 49.671,27.363 3.975,-6.246 -7.387,-2.907 z"
         id="path10"
         style="fill:#000000;fill-opacity:1"
         sodipodi:nodetypes="cccccccccccccccccccscccscccccccccccccccccccccccccccccccssscccccc" />
    </g>
  </g>
</svg>
